<svg width="400" height="400" viewBox="0 0 400 400" fill="none" xmlns="http://www.w3.org/2000/svg">
<rect width="400" height="400" rx="60" fill="#111111"/>
<path fill-rule="evenodd" clip-rule="evenodd" d="M137 267H161C163.209 267 165 265.209 165 263V137C165 134.791 163.207 133 160.998 133H140.657C139.596 133 138.579 133.421 137.828 134.172L134.172 137.828C133.421 138.579 133 139.596 133 140.657V263C133 265.209 134.791 267 137 267ZM185 137C185 134.791 186.791 133 189 133H213C215.209 133 217 134.791 217 137V263C217 265.209 215.209 267 213 267H189C186.791 267 185 265.209 185 263V137ZM241 133H265C267.209 133 269 134.791 269 137V259.343C269 260.404 268.579 261.421 267.828 262.172L264.172 265.828C263.421 266.579 262.404 267 261.343 267H241.002C238.793 267 237 265.209 237 263V137C237 134.791 238.791 133 241 133Z" fill="white"/>
</svg>
